<svg width="21" height="20" viewBox="0 0 21 20" fill="none" xmlns="http://www.w3.org/2000/svg">
<path d="M17.0527 16.5312V10.8301M10.5371 16.5312V8.38672M4.02148 16.5312L4.02148 13.2734M11.6828 4.33685L15.8922 5.9154M9.55876 4.64099L4.99901 8.0608M17.9166 5.48673C18.3937 5.96382 18.3937 6.73735 17.9166 7.21444C17.4395 7.69154 16.666 7.69154 16.1889 7.21444C15.7118 6.73735 15.7118 5.96382 16.1889 5.48673C16.666 5.00963 17.4395 5.00963 17.9166 5.48673ZM4.88534 7.93009C5.36244 8.40718 5.36244 9.18071 4.88534 9.6578C4.40825 10.1349 3.63472 10.1349 3.15763 9.6578C2.68053 9.18071 2.68053 8.40718 3.15763 7.93009C3.63472 7.45299 4.40825 7.45299 4.88534 7.93009ZM11.401 3.04337C11.8781 3.52046 11.8781 4.29399 11.401 4.77108C10.9239 5.24818 10.1503 5.24818 9.67325 4.77108C9.19616 4.29399 9.19616 3.52046 9.67325 3.04337C10.1503 2.56627 10.9239 2.56627 11.401 3.04337Z" stroke="white" stroke-width="1.62891" stroke-linecap="round" stroke-linejoin="round"/>
</svg>
