<svg width="20" height="21" viewBox="0 0 20 21" fill="none" xmlns="http://www.w3.org/2000/svg">
<path d="M17.9208 7.455V3.4825C17.9208 2.24875 17.3995 1.75 16.1043 1.75H12.8134C11.5182 1.75 10.9969 2.24875 10.9969 3.4825V7.44625C10.9969 8.68875 11.5182 9.17875 12.8134 9.17875H16.1043C17.3995 9.1875 17.9208 8.68875 17.9208 7.455Z" fill="white"/>
<path d="M17.9208 17.2988V13.7637C17.9208 12.3725 17.3995 11.8125 16.1043 11.8125H12.8134C11.5182 11.8125 10.9969 12.3725 10.9969 13.7637V17.2988C10.9969 18.69 11.5182 19.25 12.8134 19.25H16.1043C17.3995 19.25 17.9208 18.69 17.9208 17.2988Z" fill="white"/>
<path d="M8.55311 7.455V3.4825C8.55311 2.24875 8.03178 1.75 6.73659 1.75H3.44567C2.15048 1.75 1.62915 2.24875 1.62915 3.4825V7.44625C1.62915 8.68875 2.15048 9.17875 3.44567 9.17875H6.73659C8.03178 9.1875 8.55311 8.68875 8.55311 7.455Z" fill="white"/>
<path d="M8.55311 17.2988V13.7637C8.55311 12.3725 8.03178 11.8125 6.73659 11.8125H3.44567C2.15048 11.8125 1.62915 12.3725 1.62915 13.7637V17.2988C1.62915 18.69 2.15048 19.25 3.44567 19.25H6.73659C8.03178 19.25 8.55311 18.69 8.55311 17.2988Z" fill="white"/>
</svg>
