<svg width="190" height="210" viewBox="0 0 190 210" fill="none" xmlns="http://www.w3.org/2000/svg">
<path d="M17.3678 157.5L9.74341 153.061L94.6831 4.77258L102.308 9.21122L17.3678 157.5Z" fill="#8C89B4"/>
<path d="M9.74341 143.182H185.128V152.727H9.74341V143.182Z" fill="#8C89B4"/>
<path d="M95.9915 200.455L9.74341 150.973L14.2117 143.283L100.46 192.764L95.9915 200.455ZM170.916 71.4901L84.668 22.0084L89.1363 14.3182L175.384 63.8L170.916 71.4901Z" fill="#8C89B4"/>
<path d="M19.1755 71.591L14.6155 63.8878L102.62 14.3182L107.18 22.0214L19.1755 71.591Z" fill="#8C89B4"/>
<path d="M172.435 157.5L85.3011 9.20977L93.1224 4.77258L180.256 153.063L172.435 157.5ZM14.6155 53.1647H23.6473V152.068H14.6155V53.1647ZM166.085 53.1647H175.117V152.068H166.085V53.1647Z" fill="#8C89B4"/>
<path d="M101.533 195.682L97.4358 188.594L176.159 143.182L180.256 150.269L101.533 195.682Z" fill="#8C89B4"/>
<path d="M187.405 157.498C182.172 166.453 170.505 169.51 161.401 164.361C152.297 159.213 149.189 147.737 154.423 138.782C159.657 129.826 171.323 126.77 180.427 131.918C189.586 137.12 192.694 148.542 187.405 157.498ZM35.5229 71.2157C30.2893 80.1712 18.6227 83.2278 9.51846 78.0796C0.414224 72.9315 -2.69307 61.4555 2.54061 52.5C7.77417 43.5445 19.4408 40.488 28.545 45.6362C37.6493 50.8378 40.7566 62.2602 35.5229 71.2157ZM2.59487 157.498C-2.63869 148.542 0.468725 137.12 9.57272 131.918C18.677 126.77 30.2892 129.827 35.5772 138.782C40.8107 147.737 37.7033 159.16 28.5993 164.361C19.4408 169.51 7.82856 166.453 2.59487 157.498ZM154.477 71.2157C149.244 62.2602 152.351 50.8377 161.455 45.6362C170.559 40.4881 182.172 43.5447 187.459 52.5C192.693 61.4555 189.586 72.878 180.482 78.0796C171.377 83.2276 159.711 80.171 154.477 71.2157ZM94.9998 210C84.4781 210 75.9738 201.635 75.9738 191.285C75.9738 180.935 84.4781 172.57 94.9998 172.57C105.521 172.57 114.026 180.935 114.026 191.285C114.026 201.581 105.521 210 94.9998 210ZM94.9998 37.4303C84.4781 37.4303 75.9738 29.0649 75.9738 18.7151C75.9738 8.36542 84.4781 0 94.9998 0C105.521 0 114.026 8.36542 114.026 18.7151C114.026 29.0649 105.521 37.4303 94.9998 37.4303Z" fill="#8C89B4"/>
</svg>
