<?xml version="1.0" standalone="no"?>
<!DOCTYPE svg PUBLIC "-//W3C//DTD SVG 20010904//EN"
 "http://www.w3.org/TR/2001/REC-SVG-20010904/DTD/svg10.dtd">
<svg version="1.0" xmlns="http://www.w3.org/2000/svg"
 width="336.000000pt" height="45.000000pt" viewBox="0 0 336.000000 45.000000"
 preserveAspectRatio="xMidYMid meet">

<g transform="translate(0.000000,45.000000) scale(0.100000,-0.100000)"
fill="#000000" stroke="none">
<path d="M130 412 c0 -11 -8 -23 -17 -25 -10 -3 14 -3 53 0 l71 6 6 -39 c11
-64 8 -114 -6 -114 -7 0 -17 10 -22 23 -8 18 -18 22 -60 23 -80 1 -77 -1 -73
54 1 28 0 50 -4 50 -5 0 -8 -15 -8 -34 0 -25 -5 -35 -20 -39 -19 -5 -21 -12
-18 -114 l3 -108 61 -22 c105 -37 165 -53 158 -41 -5 7 4 9 25 6 25 -4 31 -1
31 14 0 10 5 18 11 18 6 0 9 -9 6 -20 -3 -11 -2 -20 3 -20 11 0 21 110 14 150
-4 19 -13 42 -20 50 -7 8 -14 38 -17 65 -3 47 -3 47 -5 -14 -2 -53 -5 -62 -18
-57 -9 3 -18 6 -20 6 -2 0 -4 24 -4 54 0 39 4 55 15 60 24 9 18 36 -11 46 -14
6 -48 10 -75 10 -30 0 -49 4 -49 11 0 11 73 7 150 -7 23 -4 23 -4 4 5 -12 5
-54 13 -93 17 -67 6 -71 5 -71 -14z m145 -42 c3 -5 1 -10 -4 -10 -6 0 -11 5
-11 10 0 6 2 10 4 10 3 0 8 -4 11 -10z m-92 -127 c103 -35 107 -37 107 -65 0
-21 -5 -28 -20 -28 -26 0 -37 -27 -21 -53 12 -19 11 -19 -76 -15 -130 6 -133
9 -133 119 0 83 2 91 18 84 9 -4 65 -23 125 -42z m25 18 c3 -10 -2 -11 -19 -6
-39 12 -48 27 -15 23 16 -2 31 -9 34 -17z m122 -75 c0 -19 -4 -38 -10 -41 -6
-4 -10 10 -10 34 0 23 5 41 10 41 6 0 10 -15 10 -34z m10 -67 c0 -9 -7 -22
-15 -29 -21 -17 -65 2 -65 28 0 14 8 18 40 17 30 0 40 -4 40 -16z"/>
<path d="M174 355 c-10 -24 12 -42 34 -29 24 16 21 38 -6 42 -13 2 -25 -3 -28
-13z m31 -5 c3 -5 -1 -10 -10 -10 -9 0 -13 5 -10 10 3 6 8 10 10 10 2 0 7 -4
10 -10z"/>
</g>
</svg>
