<svg width="231" height="204" viewBox="0 0 231 204" fill="none" xmlns="http://www.w3.org/2000/svg">
<g clip-path="url(#clip0_172_9)">
<path d="M94.9 101.773C94.9 90.4689 104.151 81.2868 115.541 81.2868C126.931 81.2868 136.182 90.4689 136.182 101.773C136.182 113.077 126.931 122.259 115.541 122.259C104.151 122.259 94.9 113.077 94.9 101.773ZM231 101.773C231 115.852 214.265 130.095 187.292 138.95C185.894 139.399 184.455 139.848 182.974 140.297C183.509 142.378 183.961 144.419 184.372 146.418C186.881 159.069 187.292 170.822 185.524 180.371C183.632 190.533 179.356 197.756 173.188 201.307C170.104 203.102 166.445 204 162.374 204C151.19 204 137.005 197.307 122.202 184.656C120.105 182.861 118.049 180.984 115.952 178.984C114.349 180.535 112.745 182.004 111.142 183.391C101.355 191.88 91.2816 198.083 82.0712 201.307C77.2604 203.021 72.7375 203.878 68.7079 203.878C64.5139 203.878 60.8133 202.98 57.6883 201.184C45.8875 194.41 41.7757 174.903 46.751 148.989C47.2444 146.337 47.8612 143.602 48.5602 140.827C46.3809 140.215 44.2839 139.562 42.2691 138.869C29.9749 134.706 19.531 129.156 12.0886 122.831C4.19402 116.138 0 108.833 0 101.773C0 88.2244 14.9669 74.9614 40.0899 66.3098C42.8448 65.3712 45.723 64.4734 48.6835 63.6164C48.0256 61.0454 47.45 58.5153 46.9566 56.0259C44.5306 43.7016 44.0783 32.3974 45.6408 23.297C47.3677 13.3803 51.4384 6.32034 57.4827 2.85156C69.7358 -4.20842 90.5826 3.05561 111.799 21.787C113.074 22.9297 114.349 24.1131 115.664 25.3374C117.597 23.501 119.53 21.7462 121.421 20.073C130.96 11.8296 140.623 5.78982 149.34 2.60671C158.838 -0.862071 167.062 -0.862071 173.065 2.5659C185.359 9.58508 189.43 31.1323 183.673 58.7193C183.344 60.3925 182.933 62.0657 182.522 63.7797C185.071 64.5142 187.538 65.2896 189.923 66.1058C201.889 70.1867 211.962 75.4919 219.117 81.3684C226.888 87.8163 231 94.8763 231 101.773ZM122.572 32.3158C129.151 39.335 135.73 47.4968 142.062 56.4748C152.958 57.4951 163.361 59.1274 172.983 61.3311C173.353 59.7804 173.723 58.2704 174.011 56.7605C179.397 30.765 174.751 14.8495 168.131 11.0542C164.759 9.13618 159.29 9.38103 152.712 11.7888C145.105 14.5638 136.511 19.9914 127.876 27.4595C126.108 28.9694 124.34 30.6018 122.572 32.3158ZM60.7722 133.767C67.351 135.196 74.4644 136.338 82.0301 137.155C79.563 133.318 77.1371 129.401 74.7933 125.402C72.4907 121.484 70.3115 117.525 68.2556 113.567C65.3362 120.423 62.7869 127.238 60.7722 133.767ZM74.7933 78.6342C77.0959 74.7165 79.4397 70.8397 81.8656 67.0852C74.5466 67.983 67.5155 69.2073 60.8955 70.6356C62.9103 77.0835 65.3774 83.7354 68.2556 90.5097C70.3115 86.5512 72.4907 82.5927 74.7933 78.6342ZM83.3459 120.504C86.9231 126.626 90.7059 132.584 94.6533 138.256C101.355 138.665 108.345 138.909 115.541 138.909C122.778 138.909 129.85 138.664 136.676 138.175C140.417 132.584 144.118 126.667 147.777 120.423C151.396 114.22 154.726 107.976 157.728 101.855C154.726 95.8557 151.437 89.7343 147.777 83.4905C144.2 77.3283 140.459 71.4518 136.635 65.8201C129.768 65.2896 122.696 65.0447 115.541 65.0447C108.469 65.0447 101.397 65.3304 94.4888 65.8609C90.6237 71.4926 86.8409 77.4099 83.3047 83.5313C79.7686 89.6119 76.4792 95.8149 73.4776 102.018C76.4792 108.18 79.7686 114.383 83.3459 120.504ZM149.258 136.991C156.865 136.094 164.101 134.869 170.803 133.359C168.748 126.952 166.157 120.178 163.032 113.159C160.935 117.199 158.674 121.28 156.33 125.32C153.986 129.319 151.643 133.237 149.258 136.991ZM170.31 70.758C163.649 69.2481 156.577 68.0238 149.217 67.0852C151.601 70.7988 153.945 74.6349 156.248 78.5526C158.591 82.5927 160.812 86.592 162.909 90.5097C165.828 83.7354 168.336 77.0835 170.31 70.758ZM101.931 55.577C106.413 55.373 110.936 55.2505 115.5 55.2505C120.146 55.2505 124.71 55.373 129.274 55.577C124.793 49.6597 120.229 44.1913 115.664 39.2942C111.018 44.2321 106.413 49.7005 101.931 55.577ZM56.6604 54.1487C57.1127 56.4748 57.6472 58.8009 58.264 61.2087C67.8444 59.0458 78.2472 57.4542 89.1435 56.434C95.4756 47.5784 102.096 39.4574 108.798 32.275C107.646 31.1731 106.495 30.1121 105.344 29.1327C85.2784 11.5031 69.078 7.54462 62.458 11.3399C59.0863 13.2579 56.5781 18.1142 55.3857 24.9701C54.0288 32.8871 54.44 43.0078 56.6604 54.1487ZM62.5813 102.059C58.0173 92.1828 54.1933 82.4295 51.3151 73.0842C48.5602 73.8595 45.9286 74.6757 43.3793 75.5735C20.2711 83.5721 9.9094 94.509 9.9094 101.814C9.9094 109.404 21.0523 121.361 45.4763 129.646C47.3266 130.258 49.218 130.87 51.1917 131.441C54.1111 121.933 57.935 112.057 62.5813 102.059ZM109.045 172.006C102.26 164.823 95.599 156.621 89.2257 147.683C77.9594 146.786 67.5155 145.276 58.1406 143.194C57.4827 145.806 56.9482 148.336 56.4548 150.785C51.8907 174.658 56.2903 189.023 62.6225 192.655C69.2424 196.45 85.2373 192.859 104.686 175.964C106.084 174.74 107.564 173.393 109.045 172.006ZM129.48 148.377C124.916 148.581 120.229 148.704 115.541 148.704C110.936 148.704 106.454 148.622 102.054 148.459C106.619 154.417 111.265 159.926 115.952 164.946C120.434 160.008 124.998 154.498 129.48 148.377ZM174.751 148.336C174.381 146.5 173.97 144.663 173.476 142.745C163.937 144.949 153.411 146.541 142.227 147.52C135.853 156.702 129.316 164.905 122.86 171.924C124.793 173.801 126.766 175.556 128.658 177.188C147.202 193.022 161.922 196.45 168.295 192.777C174.915 189.023 179.767 173.475 174.751 148.336ZM221.173 101.773C221.173 97.8961 218.212 93.3255 212.826 88.8773C206.617 83.7354 197.571 79.0423 186.757 75.3287C184.537 74.5941 182.234 73.8595 179.891 73.1658C177.053 82.2662 173.271 91.938 168.624 101.814C173.476 111.975 177.423 121.729 180.302 130.829C181.617 130.421 182.933 130.013 184.208 129.605C209.578 121.28 221.173 109.323 221.173 101.773Z" fill="#8C89B4"/>
</g>
<defs>
<clipPath id="clip0_172_9">
<rect width="231" height="204" fill="white"/>
</clipPath>
</defs>
</svg>
