<svg width="21" height="20" viewBox="0 0 21 20" fill="none" xmlns="http://www.w3.org/2000/svg">
<path d="M10.5371 12.4316C11.8865 12.4316 12.9805 11.3377 12.9805 9.98828C12.9805 8.63885 11.8865 7.54492 10.5371 7.54492C9.18768 7.54492 8.09375 8.63885 8.09375 9.98828C8.09375 11.3377 9.18768 12.4316 10.5371 12.4316Z" stroke="white" stroke-width="1.62891" stroke-linecap="round" stroke-linejoin="round"/>
<path d="M16.0162 12.2095C15.9176 12.4328 15.8882 12.6806 15.9317 12.9207C15.9753 13.1609 16.0898 13.3826 16.2605 13.5571L16.3049 13.6015C16.4426 13.739 16.5518 13.9023 16.6263 14.0821C16.7009 14.2619 16.7392 14.4546 16.7392 14.6492C16.7392 14.8438 16.7009 15.0365 16.6263 15.2162C16.5518 15.396 16.4426 15.5593 16.3049 15.6969C16.1674 15.8345 16.0041 15.9438 15.8243 16.0183C15.6445 16.0928 15.4518 16.1312 15.2572 16.1312C15.0626 16.1312 14.8699 16.0928 14.6902 16.0183C14.5104 15.9438 14.3471 15.8345 14.2096 15.6969L14.1651 15.6524C13.9906 15.4817 13.769 15.3672 13.5288 15.3237C13.2886 15.2801 13.0409 15.3095 12.8176 15.4081C12.5986 15.502 12.4118 15.6578 12.2803 15.8564C12.1487 16.0551 12.0781 16.2879 12.0772 16.5261V16.652C12.0772 17.0447 11.9212 17.4214 11.6434 17.6991C11.3657 17.9768 10.9891 18.1328 10.5963 18.1328C10.2036 18.1328 9.82695 17.9768 9.54924 17.6991C9.27153 17.4214 9.11552 17.0447 9.11552 16.652V16.5854C9.10979 16.3403 9.03046 16.1026 8.88785 15.9032C8.74524 15.7038 8.54595 15.5519 8.31587 15.4673C8.09255 15.3688 7.84483 15.3394 7.60464 15.3829C7.36446 15.4265 7.14282 15.541 6.96832 15.7117L6.9239 15.7561C6.78637 15.8938 6.62305 16.003 6.44328 16.0775C6.26351 16.152 6.07082 16.1904 5.87622 16.1904C5.68161 16.1904 5.48892 16.152 5.30915 16.0775C5.12938 16.003 4.96606 15.8938 4.82853 15.7561C4.69085 15.6186 4.58163 15.4552 4.50711 15.2755C4.43258 15.0957 4.39423 14.903 4.39423 14.7084C4.39423 14.5138 4.43258 14.3211 4.50711 14.1413C4.58163 13.9616 4.69085 13.7983 4.82853 13.6607L4.87296 13.6163C5.04365 13.4418 5.15815 13.2202 5.2017 12.98C5.24525 12.7398 5.21585 12.4921 5.11729 12.2688C5.02344 12.0498 4.86759 11.863 4.66895 11.7314C4.4703 11.5999 4.23753 11.5293 3.99927 11.5283H3.8734C3.48066 11.5283 3.10401 11.3723 2.8263 11.0946C2.54859 10.8169 2.39258 10.4403 2.39258 10.0475C2.39258 9.65478 2.54859 9.27812 2.8263 9.00041C3.10401 8.72271 3.48066 8.56669 3.8734 8.56669H3.94004C4.18511 8.56096 4.42279 8.48163 4.62218 8.33902C4.82157 8.19641 4.97344 7.99712 5.05806 7.76705C5.15662 7.54373 5.18602 7.296 5.14247 7.05581C5.09892 6.81563 4.98442 6.594 4.81373 6.4195L4.7693 6.37507C4.63162 6.23754 4.52239 6.07422 4.44787 5.89446C4.37335 5.71469 4.33499 5.52199 4.33499 5.32739C4.33499 5.13278 4.37335 4.94009 4.44787 4.76032C4.52239 4.58055 4.63162 4.41723 4.7693 4.27971C4.90683 4.14202 5.07015 4.0328 5.24992 3.95828C5.42969 3.88376 5.62238 3.8454 5.81698 3.8454C6.01159 3.8454 6.20428 3.88376 6.38405 3.95828C6.56382 4.0328 6.72714 4.14202 6.86467 4.27971L6.90909 4.32413C7.08359 4.49482 7.30522 4.60933 7.54541 4.65288C7.7856 4.69643 8.03332 4.66703 8.25664 4.56847H8.31587C8.53486 4.47461 8.72163 4.31877 8.85319 4.12012C8.98474 3.92148 9.05534 3.6887 9.05629 3.45044V3.32457C9.05629 2.93183 9.2123 2.55518 9.49001 2.27747C9.76772 1.99976 10.1444 1.84375 10.5371 1.84375C10.9298 1.84375 11.3065 1.99976 11.5842 2.27747C11.8619 2.55518 12.0179 2.93183 12.0179 3.32457V3.39121C12.0189 3.62947 12.0895 3.86224 12.221 4.06089C12.3526 4.25953 12.5394 4.41538 12.7583 4.50923C12.9817 4.60779 13.2294 4.63719 13.4696 4.59364C13.7098 4.55009 13.9314 4.43559 14.1059 4.2649L14.1503 4.22047C14.2878 4.08279 14.4512 3.97357 14.6309 3.89905C14.8107 3.82452 15.0034 3.78617 15.198 3.78617C15.3926 3.78617 15.5853 3.82452 15.7651 3.89905C15.9448 3.97357 16.1082 4.08279 16.2457 4.22047C16.3834 4.358 16.4926 4.52132 16.5671 4.70109C16.6416 4.88086 16.68 5.07355 16.68 5.26816C16.68 5.46276 16.6416 5.65545 16.5671 5.83522C16.4926 6.01499 16.3834 6.17831 16.2457 6.31584L16.2013 6.36026C16.0306 6.53476 15.9161 6.75639 15.8725 6.99658C15.829 7.23677 15.8584 7.48449 15.9569 7.70781V7.76705C16.0508 7.98604 16.2066 8.1728 16.4053 8.30436C16.6039 8.43591 16.8367 8.50651 17.0749 8.50746H17.2008C17.5936 8.50746 17.9702 8.66347 18.2479 8.94118C18.5256 9.21889 18.6816 9.59554 18.6816 9.98828C18.6816 10.381 18.5256 10.7577 18.2479 11.0354C17.9702 11.3131 17.5936 11.4691 17.2008 11.4691H17.1342C16.8959 11.4701 16.6631 11.5407 16.4645 11.6722C16.2659 11.8038 16.11 11.9905 16.0162 12.2095Z" stroke="white" stroke-width="1.62891" stroke-linecap="round" stroke-linejoin="round"/>
</svg>
