<svg width="21" height="20" viewBox="0 0 21 20" fill="none" xmlns="http://www.w3.org/2000/svg">
<path d="M13.7949 6.55274V3.70268C13.7949 3.02527 13.7949 2.68656 13.6522 2.47841C13.5275 2.29655 13.3345 2.17301 13.1171 2.13602C12.8683 2.09369 12.5608 2.23562 11.9457 2.5195L4.72111 5.85393C4.17257 6.1071 3.8983 6.23369 3.69742 6.43001C3.51983 6.60357 3.38427 6.81544 3.3011 7.04941C3.20703 7.31408 3.20703 7.61615 3.20703 8.2203V12.2539M14.2021 11.8467H14.2103M3.20703 9.15899L3.20703 14.5344C3.20703 15.4466 3.20703 15.9028 3.38457 16.2512C3.54074 16.5577 3.78993 16.8069 4.09643 16.9631C4.44487 17.1406 4.90101 17.1406 5.81328 17.1406H15.2609C16.1732 17.1406 16.6293 17.1406 16.9778 16.9631C17.2843 16.8069 17.5335 16.5577 17.6896 16.2512C17.8672 15.9028 17.8672 15.4466 17.8672 14.5344V9.15899C17.8672 8.24671 17.8672 7.79058 17.6896 7.44214C17.5335 7.13564 17.2843 6.88645 16.9778 6.73028C16.6293 6.55274 16.1732 6.55274 15.2609 6.55274L5.81328 6.55274C4.90101 6.55274 4.44487 6.55274 4.09643 6.73028C3.78993 6.88645 3.54074 7.13564 3.38457 7.44213C3.20703 7.79058 3.20703 8.24671 3.20703 9.15899ZM14.6094 11.8467C14.6094 12.0716 14.4271 12.2539 14.2021 12.2539C13.9772 12.2539 13.7949 12.0716 13.7949 11.8467C13.7949 11.6218 13.9772 11.4395 14.2021 11.4395C14.4271 11.4395 14.6094 11.6218 14.6094 11.8467Z" stroke="white" stroke-width="1.62891" stroke-linecap="round" stroke-linejoin="round"/>
</svg>
