<svg width="176" height="155" viewBox="0 0 176 155" fill="none" xmlns="http://www.w3.org/2000/svg">
<g clip-path="url(#clip0_172_35)">
<path d="M72.6957 28.2774C72.6957 28.2774 64.6168 31.8148 64.6168 38.8786C64.6168 45.9535 64.6168 74.1868 64.6168 74.1868C64.6168 74.1868 64.6168 81.2616 56.5379 77.7242C48.459 74.1868 48.459 67.1229 48.459 67.1229C48.459 67.1229 48.459 38.8786 48.459 31.8148C48.459 31.374 48.488 30.9442 48.5462 30.5255C49.4325 24.3102 56.5234 21.2025 56.5234 21.2025L40.3801 14.1387C40.3801 14.1387 40.3655 14.1387 40.351 14.1497C39.8715 14.3591 32.3011 17.8965 32.3011 24.7399C32.3011 31.8148 32.3011 60.0481 32.3011 60.0481C32.3011 60.0481 32.3011 67.1229 24.2222 63.5855C16.1433 60.0481 16.1433 52.9842 16.1433 52.9842C16.1433 52.9842 16.1433 24.7399 16.1433 17.6761C16.1433 10.6123 24.2222 7.07485 24.2222 7.07485L8.07892 0C8.07892 0 0 3.53743 0 10.6013C0 17.6761 0 45.9094 0 45.9094C0 45.9094 0 67.1229 24.2222 77.7242C31.6473 80.9751 36.791 81.2286 40.3655 80.0274C43.94 84.3582 49.0838 88.612 56.5088 91.8629C80.7311 102.464 80.7311 81.2616 80.7311 81.2616C80.7311 81.2616 80.7311 53.0173 80.7311 45.9535C80.7311 38.8786 88.81 35.3522 88.81 35.3522C86.3266 32.983 84.1184 31.3741 82.1854 30.5255C80.5375 29.8019 77.3743 29.0526 72.6957 28.2774Z" fill="#8C89B4"/>
<path d="M161.491 88.3585C161.491 67.4204 185.713 77.7572 185.713 77.7572L218 91.8959V106.035L185.713 91.8959C185.713 91.8959 185.612 91.8513 185.431 91.7822L185.325 91.7422C183.712 91.1443 177.635 89.2984 177.635 95.4443C177.635 102.508 185.713 106.046 185.713 106.046L201.857 113.109C201.857 113.109 218 120.184 218 141.387C218 162.589 193.778 151.988 193.778 151.988L161.491 137.849V123.711L193.792 137.849C193.792 137.849 201.871 141.387 201.871 134.312C201.871 127.248 193.792 123.711 193.792 123.711L185.713 120.173C185.231 119.955 161.491 109.087 161.491 88.3585ZM137.269 56.5547C142.097 56.9755 145.37 57.5623 147.087 58.3152C148.957 59.1345 151.065 60.9059 153.412 63.6295C153.412 63.6295 145.333 67.167 145.333 74.2308L145.333 109.595C145.312 110.782 144.607 130.423 121.111 120.14C97.6156 109.857 96.9107 89.5887 96.8896 88.3818L96.8889 88.3254L113.032 95.4002L113.033 95.4239C113.041 95.8725 113.305 102.583 121.111 106.002C128.943 109.431 129.182 102.887 129.19 102.483L129.19 67.1559C129.19 60.0921 137.269 56.5547 137.269 56.5547ZM96.918 60.1693L113.061 67.2331V81.3718L96.918 74.3079V60.1693Z" fill="#8C89B4"/>
<path d="M185.713 28.2774C178.274 25.0155 171.604 23.4286 165.923 22.7894C164.441 20.332 160.808 17.4447 153.427 14.2489C129.205 3.75787 104.997 14.1387 104.997 14.1387L72.6958 28.2774L88.8391 35.3412L121.126 21.2026C121.126 21.2026 129.205 17.6651 137.269 21.2026C145.348 24.74 137.269 28.2774 137.269 28.2774L104.982 42.4161L121.126 49.4799L153.441 35.3302C153.921 35.1208 161.738 31.914 169.556 35.3412C177.635 38.8787 169.556 42.4051 169.556 42.4051L137.269 56.5438L153.412 63.6186L193.778 45.9425C193.778 45.9425 209.921 38.8787 185.713 28.2774Z" fill="#8C89B4"/>
</g>
<defs>
<clipPath id="clip0_172_35">
<rect width="218" height="155" fill="white"/>
</clipPath>
</defs>
</svg>
